<svg width="27" height="24" viewBox="0 0 27 24" fill="none" xmlns="http://www.w3.org/2000/svg">
<g clip-path="url(#clip0_1_139)">
<path d="M27 24H0V0H27V24Z" stroke="#E5E7EB"/>
<path d="M12.6328 3.27656C13.1531 2.90625 13.8469 2.90625 14.3672 3.27656C15.4219 4.00312 16.7109 4.5 18 4.5C19.2609 4.5 20.5969 3.99375 21.6281 3.27656C22.1859 2.87812 22.9453 2.91094 23.4656 3.35625C24.1406 3.91406 24.9891 4.34062 25.8375 4.5375C26.6437 4.725 27.1453 5.53125 26.9578 6.3375C26.7703 7.14375 25.9641 7.64531 25.1578 7.45781C24.0094 7.19063 23.0531 6.68438 22.4297 6.28594C21.0703 7.01719 19.5469 7.5 18 7.5C16.5047 7.5 15.1594 7.03594 14.2312 6.61406C13.9594 6.4875 13.7109 6.36562 13.5 6.25312C13.2891 6.36562 13.0453 6.49219 12.7687 6.61406C11.8406 7.03594 10.4953 7.5 9 7.5C7.45312 7.5 5.92968 7.01719 4.57031 6.29062C3.94218 6.68437 2.99062 7.19531 1.84218 7.4625C1.03593 7.65 0.229685 7.14844 0.0421846 6.34219C-0.145315 5.53594 0.356247 4.72969 1.1625 4.54219C2.00625 4.34062 2.85937 3.91406 3.52969 3.35625C4.05 2.91094 4.80937 2.88281 5.36718 3.27656C6.40781 3.99375 7.73906 4.5 9 4.5C10.2891 4.5 11.5781 4.00312 12.6328 3.27656ZM14.3672 16.7766C15.4219 17.5031 16.7109 18 18 18C19.2609 18 20.5969 17.4938 21.6281 16.7766C22.1859 16.3781 22.9453 16.4109 23.4656 16.8563C24.1406 17.4141 24.9891 17.8406 25.8375 18.0375C26.6437 18.225 27.1453 19.0313 26.9578 19.8375C26.7703 20.6438 25.9641 21.1453 25.1578 20.9578C24.0094 20.6906 23.0531 20.1844 22.4297 19.7859C21.0703 20.5172 19.5469 21 18 21C16.5047 21 15.1594 20.5359 14.2312 20.1141C13.9594 19.9875 13.7109 19.8656 13.5 19.7531C13.2891 19.8656 13.0453 19.9922 12.7687 20.1141C11.8406 20.5359 10.4953 21 9 21C7.45312 21 5.92968 20.5172 4.57031 19.7906C3.94218 20.1844 2.99062 20.6953 1.84218 20.9625C1.03593 21.15 0.229685 20.6484 0.0421846 19.8422C-0.145315 19.0359 0.356247 18.2297 1.1625 18.0422C2.01093 17.8453 2.85937 17.4188 3.53437 16.8609C4.05468 16.4203 4.81406 16.3875 5.37187 16.7812C6.40781 17.4938 7.73906 18 9 18C10.2891 18 11.5781 17.5031 12.6328 16.7766C13.1531 16.4062 13.8469 16.4062 14.3672 16.7766ZM14.3672 10.0266C15.4219 10.7531 16.7109 11.25 18 11.25C19.2609 11.25 20.5969 10.7437 21.6281 10.0266C22.1859 9.62812 22.9453 9.66094 23.4656 10.1062C24.1406 10.6641 24.9891 11.0906 25.8375 11.2875C26.6437 11.475 27.1453 12.2812 26.9578 13.0875C26.7703 13.8938 25.9641 14.3953 25.1578 14.2078C24.0094 13.9406 23.0531 13.4344 22.4297 13.0359C21.0703 13.7672 19.5469 14.25 18 14.25C16.5047 14.25 15.1594 13.7859 14.2312 13.3641C13.9594 13.2375 13.7109 13.1156 13.5 13.0031C13.2891 13.1156 13.0453 13.2422 12.7687 13.3641C11.8406 13.7859 10.4953 14.25 9 14.25C7.45312 14.25 5.92968 13.7672 4.57031 13.0406C3.94218 13.4344 2.99062 13.9453 1.84218 14.2125C1.03593 14.4 0.229685 13.8984 0.0421846 13.0922C-0.145315 12.2859 0.356247 11.4797 1.1625 11.2922C2.01093 11.0953 2.85937 10.6687 3.53437 10.1109C4.05468 9.66562 4.81406 9.6375 5.37187 10.0312C6.40781 10.7437 7.73906 11.25 9 11.25C10.2891 11.25 11.5781 10.7531 12.6328 10.0266C13.1531 9.65625 13.8469 9.65625 14.3672 10.0266Z" fill="#0A4C70"/>
</g>
<defs>
<clipPath id="clip0_1_139">
<rect width="27" height="24" fill="white"/>
</clipPath>
</defs>
</svg>
